HIERARCHY
ROOT Hips
{
 OFFSET 0.000000 0.000000 0.000000
 CHANNELS 6 Xposition Yposition Zposition Yrotation Xrotation Zrotation
 JOINT Chest
 {
  OFFSET 0.000000 9.585900 0.002600
  CHANNELS 3 Yrotation Xrotation Zrotation
  JOINT Chest2
  {
   OFFSET 0.000000 9.601200 -0.005300
   CHANNELS 3 Yrotation Xrotation Zrotation
   JOINT Chest3
   {
    OFFSET 0.000000 9.561800 0.000000
    CHANNELS 3 Yrotation Xrotation Zrotation
    JOINT Chest4
    {
     OFFSET 0.000000 9.552100 0.000000
     CHANNELS 3 Yrotation Xrotation Zrotation
     JOINT Neck
     {
      OFFSET 0.000000 14.453000 0.000000
      CHANNELS 3 Yrotation Xrotation Zrotation
      JOINT Head
      {
       OFFSET 0.000000 8.936500 -0.011300
       CHANNELS 3 Yrotation Xrotation Zrotation
       End Site
       {
        OFFSET 0.000000 17.073600 -0.006000
       }
      }
     }
     JOINT RightCollar
     {
      OFFSET -2.921100 9.558500 0.000000
      CHANNELS 3 Yrotation Xrotation Zrotation
      JOINT RightShoulder
      {
       OFFSET -13.519700 0.000000 0.000000
       CHANNELS 3 Yrotation Xrotation Zrotation
       JOINT RightElbow
       {
        OFFSET 0.000000 -29.696600 0.000000
        CHANNELS 3 Yrotation Xrotation Zrotation
        JOINT RightWrist
        {
         OFFSET 0.000000 -24.004700 0.000000
         CHANNELS 3 Yrotation Xrotation Zrotation
         End Site
         {
          OFFSET 0.000000 -17.728500 0.000000
         }
        }
       }
      }
     }
     JOINT LeftCollar
     {
      OFFSET 2.921100 9.558500 0.000000
      CHANNELS 3 Yrotation Xrotation Zrotation
      JOINT LeftShoulder
      {
       OFFSET 13.519700 0.000000 0.000000
       CHANNELS 3 Yrotation Xrotation Zrotation
       JOINT LeftElbow
       {
        OFFSET 0.000000 -29.696600 0.000000
        CHANNELS 3 Yrotation Xrotation Zrotation
        JOINT LeftWrist
        {
         OFFSET 0.000000 -24.004700 0.000000
         CHANNELS 3 Yrotation Xrotation Zrotation
         End Site
         {
          OFFSET 0.000000 -17.728500 0.000000
         }
        }
       }
      }
     }
    }
   }
  }
 }
 JOINT RightHip
 {
  OFFSET -7.771700 -0.012900 -0.001300
  CHANNELS 3 Yrotation Xrotation Zrotation
  JOINT RightKnee
  {
   OFFSET 0.000000 -40.869800 0.001200
   CHANNELS 3 Yrotation Xrotation Zrotation
   JOINT RightAnkle
   {
    OFFSET 0.000000 -39.717900 0.002100
    CHANNELS 3 Yrotation Xrotation Zrotation
    JOINT RightToe
    {
     OFFSET 0.000000 -4.965400 11.033500
     CHANNELS 3 Yrotation Xrotation Zrotation
     End Site
     {
      OFFSET 0.000000 -1.423100 5.872300
     }
    }
   }
  }
 }
 JOINT LeftHip
 {
  OFFSET 7.771700 -0.012900 -0.001300
  CHANNELS 3 Yrotation Xrotation Zrotation
  JOINT LeftKnee
  {
   OFFSET 0.000000 -40.869800 0.001200
   CHANNELS 3 Yrotation Xrotation Zrotation
   JOINT LeftAnkle
   {
    OFFSET 0.000000 -39.717900 0.002100
    CHANNELS 3 Yrotation Xrotation Zrotation
    JOINT LeftToe
    {
     OFFSET 0.000000 -4.965400 11.033500
     CHANNELS 3 Yrotation Xrotation Zrotation
     End Site
     {
      OFFSET 0.000000 -1.423100 5.872300
     }
    }
   }
  }
 }
}
MOTION
Frames: 13
Frame Time: 0.008333
-59.714386 46.568098 3.267681 176.410029 -34.898645 -2.994743 0.840669 17.631682 1.117452 0.035246 1.969339 0.116253 0.060736 3.268136 0.193700 0.443032 15.614163 0.952485 -0.710776 23.278024 -1.178596 -0.934929 7.402442 -2.019928 0.661501 1.050102 -0.636437 5.616573 -6.240980 -15.472518 -42.663033 -52.001508 92.402219 -3.105497 7.810880 -20.454941 -1.145758 -0.039406 2.172939 -4.245685 -2.044181 11.711753 58.066964 -68.547288 -97.518813 0.130011 11.517793 11.364749 -0.011547 -52.135105 -5.090523 -154.025487 76.953929 -145.664201 -8.350787 -17.739728 -5.054943 -0.762859 -1.052604 -0.310368 -2.083621 -54.017818 11.879447 -117.180308 82.398440 -121.442451 5.189575 -6.526893 3.485820 0.992708 0.233825 0.341958
-59.707898 46.567581 3.256840 176.438075 -34.893079 -2.957907 0.795513 17.633831 1.076621 0.031278 1.974033 0.124056 0.058813 3.266305 0.185119 0.404230 15.632251 0.963336 -0.682807 23.248096 -1.198733 -0.878088 7.344789 -2.036959 0.674772 1.091144 -0.633629 5.618561 -6.301641 -15.538454 -42.672726 -51.990010 92.450277 -3.111770 7.769238 -20.423765 -1.126853 -0.036677 2.162413 -4.244807 -2.008725 11.707045 58.243320 -68.567286 -97.674242 0.128851 11.516937 11.366225 -0.018624 -52.152903 -5.169762 -153.956857 76.921852 -145.628270 -8.346964 -17.608581 -5.071694 -0.721476 -1.035678 -0.289785 -2.095622 -54.009624 11.807670 -117.240427 82.413193 -121.484401 5.214539 -6.556388 3.453682 0.980753 0.248525 0.336181
-59.702876 46.569391 3.243216 176.490618 -34.906318 -2.924819 0.730989 17.656517 1.026309 0.032378 1.986044 0.143895 0.050635 3.256457 0.164485 0.364805 15.647073 0.970103 -0.656179 23.224397 -1.228950 -0.864125 7.332666 -2.042587 0.698146 1.112474 -0.642820 5.621688 -6.345514 -15.575878 -42.692340 -51.984619 92.484052 -3.085523 7.734900 -20.370505 -1.142362 -0.008850 2.164211 -4.220872 -2.018992 11.681017 58.295521 -68.586791 -97.705671 0.127839 11.510364 11.372723 -0.031712 -52.142759 -5.266258 -153.773232 76.874716 -145.478324 -8.380978 -17.532787 -5.080230 -0.653485 -0.988645 -0.258111 -2.106197 -53.983483 11.708548 -117.351882 82.438185 -121.575558 5.293283 -6.572032 3.438207 0.890687 0.240957 0.320425
-59.701260 46.569596 3.232709 176.537695 -34.895486 -2.874897 0.679018 17.687575 1.025742 0.020809 1.971862 0.113975 0.036649 3.272223 0.189618 0.280226 15.650545 0.945865 -0.606406 23.186503 -1.273892 -0.811661 7.297218 -2.063265 0.739487 1.138996 -0.671817 5.636564 -6.414623 -15.632921 -42.725936 -51.982317 92.504249 -3.078249 7.750762 -20.328108 -1.078701 -0.045071 2.098675 -4.262863 -1.983869 11.684982 58.351732 -68.597746 -97.729907 0.134741 11.525725 11.385560 0.001980 -52.151037 -5.395127 -153.480830 76.810008 -145.203296 -8.407762 -17.480630 -5.078715 -0.613761 -0.937314 -0.234312 -2.091378 -53.982334 11.587353 -117.434179 82.466215 -121.656445 5.351223 -6.589669 3.428580 0.845608 0.242735 0.313162
-59.701304 46.570884 3.221979 176.586420 -34.885445 -2.826088 0.616301 17.690878 0.964915 0.019439 1.983199 0.131676 0.030394 3.260078 0.170637 0.250795 15.653876 0.946696 -0.577125 23.197128 -1.239221 -0.769704 7.263396 -2.110681 0.735485 1.187201 -0.660597 5.620590 -6.480224 -15.688488 -42.703497 -51.965668 92.512809 -3.047011 7.746692 -20.278971 -1.081506 -0.032986 2.089040 -4.292669 -1.969133 11.681877 58.240084 -68.606819 -97.619167 0.146154 11.479401 11.432928 0.034135 -52.155475 -5.526903 -153.169639 76.742104 -144.904357 -8.455021 -17.441370 -5.078175 -0.580195 -0.891941 -0.209188 -2.073940 -53.980394 11.462620 -117.523416 82.495658 -121.743396 5.409619 -6.605401 3.417529 0.802549 0.244330 0.304022
-59.702538 46.573155 3.211209 176.619573 -34.875574 -2.774231 0.567568 17.694246 0.909842 0.020032 1.990026 0.139875 0.023009 3.251709 0.161435 0.240190 15.648302 0.934742 -0.560669 23.210832 -1.218202 -0.671087 7.277011 -2.112640 0.719847 1.223907 -0.643088 5.531585 -6.505770 -15.704134 -42.628203 -51.971109 92.528294 -3.016927 7.760252 -20.237619 -1.095677 -0.008309 2.096148 -4.300305 -1.979230 11.674720 58.153268 -68.609116 -97.533615 0.163983 11.471610 11.457892 0.051374 -52.152417 -5.651581 -153.099157 76.731907 -144.854980 -8.535514 -17.405935 -5.070590 -0.595662 -0.843896 -0.203242 -2.047151 -53.979827 11.341217 -117.700603 82.530395 -121.901698 5.420927 -6.622270 3.398412 0.807148 0.244131 0.293958
-59.704026 46.577110 3.199196 176.656351 -34.874381 -2.736485 0.527889 17.721994 0.887369 0.011741 1.969326 0.112367 0.021597 3.268329 0.186754 0.205219 15.643497 0.924838 -0.532111 23.213389 -1.223847 -0.637097 7.283996 -2.123968 0.722612 1.240301 -0.653582 5.524494 -6.528813 -15.719034 -42.597088 -51.939504 92.501318 -2.982578 7.786771 -20.205815 -1.092882 0.022272 2.092355 -4.350502 -1.989073 11.674837 58.140498 -68.602726 -97.480060 0.189887 11.466165 11.480157 0.062553 -52.122926 -5.804313 -153.161746 76.753732 -144.922454 -8.544923 -17.379420 -5.072405 -0.606102 -0.840716 -0.211679 -2.034213 -53.971471 11.235456 -117.903649 82.567298 -122.090059 5.455640 -6.638131 3.394766 0.774854 0.240186 0.272725
-59.703408 46.582025 3.186780 176.693060 -34.877715 -2.724832 0.489931 17.750884 0.884529 0.009140 1.967801 0.112088 0.027133 3.285257 0.215987 0.166323 15.628955 0.904189 -0.509878 23.210348 -1.244290 -0.607409 7.291141 -2.133262 0.722326 1.245483 -0.680355 5.511490 -6.543163 -15.724805 -42.557959 -51.895516 92.465194 -3.019166 7.853251 -20.215246 -1.081408 0.034546 2.075153 -4.408890 -1.994174 11.680564 58.096771 -68.588049 -97.407694 0.217975 11.461692 11.498128 0.080088 -52.098131 -5.919116 -153.045965 76.733526 -144.794933 -8.554821 -17.315421 -5.080697 -0.658689 -0.805644 -0.214757 -2.050981 -53.962707 11.171365 -118.211932 82.612854 -122.360263 5.427604 -6.643899 3.346033 0.766146 0.228453 0.283369
-59.710321 46.584123 3.177440 176.745814 -34.854358 -2.691130 0.437271 17.751777 0.851637 0.017857 1.978278 0.133191 0.016662 3.269682 0.194763 0.144254 15.622038 0.887699 -0.490276 23.216413 -1.238475 -0.572235 7.299404 -2.140236 0.716144 1.255489 -0.681098 5.447931 -6.471535 -15.661893 -42.512755 -51.938625 92.455392 -3.045405 7.896539 -20.237958 -1.072696 0.058155 2.088558 -4.454428 -2.008665 11.683706 58.005352 -68.568290 -97.309544 0.237986 11.460119 11.507410 0.135184 -52.110847 -6.072270 -152.614622 76.664260 -144.372026 -8.533382 -17.219044 -5.067296 -0.659741 -0.787426 -0.211369 -2.032574 -53.980779 11.062312 -118.304767 82.634649 -122.452049 5.448096 -6.646474 3.354434 0.722791 0.221036 0.270369
-59.710941 46.586490 3.168067 176.769235 -34.838019 -2.689779 0.428287 17.750247 0.868667 0.005729 1.967952 0.112444 0.029330 3.282625 0.219298 0.130191 15.622642 0.887204 -0.503712 23.203835 -1.262091 -0.520548 7.309988 -2.144716 0.703525 1.244596 -0.705117 5.420544 -6.390020 -15.606245 -42.504804 -51.953770 92.454930 -3.058635 7.912615 -20.275917 -1.068403 0.077545 2.091263 -4.496283 -2.030086 11.684403 57.923129 -68.546853 -97.223673 0.245543 11.466023 11.506722 0.141728 -52.123515 -6.117132 -152.247618 76.619925 -144.022179 -8.561322 -17.075560 -5.038884 -0.629960 -0.816859 -0.208862 -2.043106 -53.993114 11.040112 -118.370415 82.638556 -122.508395 5.453245 -6.657892 3.373018 0.710484 0.223257 0.239930
-59.714607 46.588974 3.157065 176.793258 -34.834273 -2.680320 0.419135 17.757905 0.881613 0.004984 1.969780 0.112863 0.026615 3.289456 0.220250 0.125605 15.624919 0.889415 -0.493870 23.201952 -1.267436 -0.497876 7.294737 -2.159439 0.688603 1.243938 -0.720984 5.412783 -6.324067 -15.574378 -42.520275 -51.951955 92.464615 -3.070562 7.909531 -20.321972 -1.067873 0.093484 2.095471 -4.533249 -2.053278 11.678943 57.856285 -68.534822 -97.154490 0.240865 11.479301 11.494670 0.186941 -52.118969 -6.217892 -152.061166 76.603074 -143.836341 -8.557459 -16.921947 -5.000826 -0.627935 -0.840856 -0.226629 -2.039696 -53.992440 10.998922 -118.476825 82.645334 -122.609620 5.471712 -6.676068 3.386482 0.694831 0.219211 0.232713
-59.720815 46.589865 3.146799 176.807579 -34.827496 -2.659468 0.413316 17.765205 0.886308 0.010657 1.981366 0.129523 0.010478 3.274701 0.190104 0.139156 15.643140 0.912625 -0.485158 23.193878 -1.274395 -0.510267 7.273307 -2.172287 0.680972 1.253598 -0.719946 5.409320 -6.266124 -15.567742 -42.553901 -51.953513 92.487567 -3.080730 7.887606 -20.364235 -1.072461 0.101318 2.098322 -4.557795 -2.084672 11.658116 57.771190 -68.540168 -97.065595 0.223891 11.497528 11.466321 0.249838 -52.124738 -6.332602 -151.924934 76.586031 -143.703002 -8.529662 -16.754441 -4.960679 -0.624551 -0.864545 -0.247268 -2.022163 -53.993295 10.951837 -118.545585 82.650281 -122.678597 5.483057 -6.696640 3.406577 0.670636 0.218797 0.223573
-59.727906 46.589481 3.136944 176.821009 -34.821453 -2.640787 0.410447 17.791310 0.916141 -0.000952 1.958645 0.092731 0.010866 3.276347 0.191080 0.188752 15.695843 0.985744 -0.467929 23.161080 -1.290823 -0.525454 7.222583 -2.201162 0.640365 1.210562 -0.773939 5.412031 -6.189830 -15.551036 -42.599086 -51.958596 92.522936 -3.089276 7.848617 -20.400970 -1.113475 0.074416 2.063381 -4.577306 -2.117285 11.634700 57.754674 -68.543796 -97.041667 0.186015 11.537080 11.436093 0.315722 -52.129528 -6.448167 -151.953431 76.588110 -143.721490 -8.521226 -16.606431 -4.931917 -0.611800 -0.869490 -0.261603 -1.986097 -53.996862 10.912233 -118.638203 82.658120 -122.784185 5.485972 -6.715669 3.451115 0.642385 0.215854 0.214347
